<svg xmlns="http://www.w3.org/2000/svg" width="550" height="208" viewBox="0 0 550 208" role="img">
<rect width="550" height="208" fill="#0d1117"/>
<g transform="translate(30,0)">
<text x="0" y="16" font-family="-apple-system,BlinkMacSystemFont,'Segoe UI',Helvetica,Arial,sans-serif" font-size="12" font-weight="700" fill="#f0f6fc" text-anchor="start">My commits by year</text>
<text x="0" y="43.5" font-family="-apple-system,BlinkMacSystemFont,'Segoe UI',Helvetica,Arial,sans-serif" font-size="11" font-weight="600" fill="#f0f6fc" text-anchor="start">2022</text>
<rect x="135" y="34" width="323" height="11" rx="5" fill="#21262d"/>
<rect x="135" y="34" width="2.4" height="11" rx="5" fill="#58a6ff"/>
<text x="520" y="43.5" font-family="-apple-system,BlinkMacSystemFont,'Segoe UI',Helvetica,Arial,sans-serif" font-size="11" font-weight="400" fill="#9198a1" text-anchor="end">1</text>
<text x="0" y="71.5" font-family="-apple-system,BlinkMacSystemFont,'Segoe UI',Helvetica,Arial,sans-serif" font-size="11" font-weight="600" fill="#f0f6fc" text-anchor="start">2023</text>
<rect x="135" y="62" width="323" height="11" rx="5" fill="#21262d"/>
<rect x="135" y="62" width="150.9" height="11" rx="5" fill="#58a6ff"/>
<text x="520" y="71.5" font-family="-apple-system,BlinkMacSystemFont,'Segoe UI',Helvetica,Arial,sans-serif" font-size="11" font-weight="400" fill="#9198a1" text-anchor="end">64</text>
<text x="0" y="99.5" font-family="-apple-system,BlinkMacSystemFont,'Segoe UI',Helvetica,Arial,sans-serif" font-size="11" font-weight="600" fill="#f0f6fc" text-anchor="start">2024</text>
<rect x="135" y="90" width="323" height="11" rx="5" fill="#21262d"/>
<rect x="135" y="90" width="323.0" height="11" rx="5" fill="#58a6ff"/>
<text x="520" y="99.5" font-family="-apple-system,BlinkMacSystemFont,'Segoe UI',Helvetica,Arial,sans-serif" font-size="11" font-weight="400" fill="#9198a1" text-anchor="end">137</text>
<text x="0" y="127.5" font-family="-apple-system,BlinkMacSystemFont,'Segoe UI',Helvetica,Arial,sans-serif" font-size="11" font-weight="600" fill="#f0f6fc" text-anchor="start">2025</text>
<rect x="135" y="118" width="323" height="11" rx="5" fill="#21262d"/>
<rect x="135" y="118" width="235.8" height="11" rx="5" fill="#58a6ff"/>
<text x="520" y="127.5" font-family="-apple-system,BlinkMacSystemFont,'Segoe UI',Helvetica,Arial,sans-serif" font-size="11" font-weight="400" fill="#9198a1" text-anchor="end">100</text>
<text x="0" y="155.5" font-family="-apple-system,BlinkMacSystemFont,'Segoe UI',Helvetica,Arial,sans-serif" font-size="11" font-weight="600" fill="#f0f6fc" text-anchor="start">2026</text>
<rect x="135" y="146" width="323" height="11" rx="5" fill="#21262d"/>
<rect x="135" y="146" width="155.6" height="11" rx="5" fill="#58a6ff"/>
<text x="520" y="155.5" font-family="-apple-system,BlinkMacSystemFont,'Segoe UI',Helvetica,Arial,sans-serif" font-size="11" font-weight="400" fill="#9198a1" text-anchor="end">66</text>
</g>
</svg>
